<?xml version="1.0" encoding="UTF-8"?>
<svg version="1.1" xmlns="http://www.w3.org/2000/svg" width="180" height="180">
<path d="M0 0 C4.86518753 2.88711428 6.25576626 6.37857421 7.6875 11.625 C7.89463623 12.34067139 8.10177246 13.05634277 8.31518555 13.79370117 C8.90121151 15.85678266 9.45753294 17.92508971 10 20 C10.25007812 20.95261719 10.50015625 21.90523437 10.7578125 22.88671875 C12.14008255 28.93171664 12.2114976 34.81957023 12 41 C12.86238281 40.52691406 13.72476563 40.05382813 14.61328125 39.56640625 C22.08426426 35.5054801 29.63412883 31.6550072 37.3125 28 C38.14241455 27.60240479 38.9723291 27.20480957 39.82739258 26.79516602 C40.98984497 26.24687134 40.98984497 26.24687134 42.17578125 25.6875 C42.86583252 25.36136719 43.55588379 25.03523438 44.2668457 24.69921875 C46 24 46 24 48 24 C48.16261305 34.14464184 48.28678239 44.28897069 48.3626852 54.43465328 C48.3991263 59.14644028 48.44850703 63.85733182 48.52807617 68.56860352 C48.60446564 73.12039982 48.64605884 77.67133815 48.6641407 82.22372627 C48.67701621 83.95527202 48.70215994 85.68677389 48.7401104 87.41795158 C49.08451313 103.78836157 49.08451313 103.78836157 42.85168457 110.39160156 C40.03345246 112.83955636 37.22095708 115.07169295 34.0625 117.0625 C33.47404297 117.45115234 32.88558594 117.83980469 32.27929688 118.24023438 C30.8617274 119.17375573 29.43215828 120.08901812 28 121 C34.33396694 126.42113053 39.92545481 128.63560617 48 132 C48 147.84 48 163.68 48 180 C42 180 42 180 38.75 179.4375 C36.04705178 178.73389607 36.04705178 178.73389607 34 180 C24.66149789 181.13488741 18.01676771 178.85777847 10.6328125 173.1796875 C5.33823529 168.67647059 5.33823529 168.67647059 4 166 C3.67 166.66 3.34 167.32 3 168 C0.13565596 168.63912692 -2.66879881 169.16944544 -5.5625 169.625 C-6.77196289 169.82609375 -6.77196289 169.82609375 -8.00585938 170.03125 C-10.0026124 170.36207299 -12.0011567 170.68205038 -14 171 C-13.67 171.33 -13.34 171.66 -13 172 C-12.95936168 173.66617115 -12.957279 175.33388095 -13 177 C-14.76953125 177.67578125 -14.76953125 177.67578125 -17 178 C-18.88671875 176.85546875 -18.88671875 176.85546875 -20.6875 175.1875 C-21.28949219 174.64480469 -21.89148438 174.10210937 -22.51171875 173.54296875 C-24 172 -24 172 -25 170 C-26.73337865 169.5367695 -28.48896957 169.15594703 -30.25 168.8125 C-46.04379081 165.05654499 -57.92089115 155.20657448 -66.82763672 141.90917969 C-69.61026002 137.37771067 -71.88512689 132.54853025 -74.25610352 127.79321289 C-77.14212132 122.17259893 -80.3031475 118.36911201 -85.08203125 114.19921875 C-88.7900981 109.94740279 -89.80554021 104.40430406 -91 99 C-92.65 98.67 -94.3 98.34 -96 98 C-96.33 99.65 -96.66 101.3 -97 103 C-99.475 103.495 -99.475 103.495 -102 104 C-102 102.02 -102 100.04 -102 98 C-103.65 98 -105.3 98 -107 98 C-108.0326802 95.21176345 -108.04509293 94.1322726 -107.0625 91.25 C-106.711875 90.5075 -106.36125 89.765 -106 89 C-108.42998664 88.15885078 -109.94305588 87.99003478 -112.5 88.4375 C-118.98697025 89.48004879 -125.6195781 89.59510547 -132 88 C-132 82.39 -132 76.78 -132 71 C-131.01 70.505 -131.01 70.505 -130 70 C-130.66 69.67 -131.32 69.34 -132 69 C-132 61.41 -132 53.82 -132 46 C-123.66633614 49.33346554 -118.45701337 56.27002479 -114.953125 64.44140625 C-113.62977328 68.23043687 -113 70.92443904 -113 75 C-111.9790625 75.2784375 -111.9790625 75.2784375 -110.9375 75.5625 C-106.81310179 77.58082253 -104.09621055 80.66287393 -101 84 C-97.535 83.01 -97.535 83.01 -94 82 C-94.495 80.6696875 -94.495 80.6696875 -95 79.3125 C-95.94693778 76.17576859 -96.34526365 74.22246075 -96 71 C-91.50745033 64.80826248 -84.28659043 61.55228117 -77 60 C-63.35313677 58.43783207 -53.79965057 62.04728702 -43 70 C-43.09539062 68.73285156 -43.19078125 67.46570313 -43.2890625 66.16015625 C-43.40171494 64.460982 -43.51365605 62.76176049 -43.625 61.0625 C-43.68945312 60.23169922 -43.75390625 59.40089844 -43.8203125 58.54492188 C-44.76984923 43.2929881 -37.52311692 33.66925379 -28.5625 21.9375 C-27.93279297 21.10412109 -27.30308594 20.27074219 -26.65429688 19.41210938 C-24.77830492 16.93456604 -22.89127733 14.46588929 -21 12 C-20.35708008 11.15783936 -19.71416016 10.31567871 -19.05175781 9.44799805 C-18.43268555 8.64273682 -17.81361328 7.83747559 -17.17578125 7.0078125 C-16.62188721 6.28609863 -16.06799316 5.56438477 -15.49731445 4.82080078 C-11.42845171 -0.12711677 -6.17487249 -1.3428233 0 0 Z " fill="#FDFDFD" transform="translate(132,0)"/>
<path d="M0 0 C3.66115577 3.565314 4.38605357 8.39635697 5.5625 13.1875 C5.77068359 14.00025391 5.97886719 14.81300781 6.19335938 15.65039062 C7.03121167 18.95189638 7.85492243 22.23744232 8.49169922 25.58447266 C8.64783691 26.39835449 8.80397461 27.21223633 8.96484375 28.05078125 C9.09366943 28.78594971 9.22249512 29.52111816 9.35522461 30.27856445 C9.67438843 31.13067505 9.67438843 31.13067505 10 32 C10.99 32.33 11.98 32.66 13 33 C13 34.65 13 36.3 13 38 C12.42032471 38.31227539 11.84064941 38.62455078 11.2434082 38.94628906 C8.59695707 40.37571654 5.95472459 41.81277611 3.3125 43.25 C1.94448242 43.98669922 1.94448242 43.98669922 0.54882812 44.73828125 C-7.50962559 49.13380146 -12.32869684 52.93883026 -16.9375 60.875 C-20.12164324 66.34949188 -23.3440439 70.67612811 -28 75 C-30.91517292 73.92598892 -32.77810176 73.22189824 -35 71 C-35.71814283 66.70469289 -35.80584397 62.34644754 -36 58 C-36.03931641 57.33468262 -36.07863281 56.66936523 -36.11914062 55.98388672 C-36.98984394 40.49200869 -31.73171015 32.52827672 -22.14453125 20.90625 C-18.62017399 16.59786113 -15.42330423 12.0831916 -12.2980957 7.47949219 C-9.01885937 2.73697464 -6.17645241 -1.10859402 0 0 Z " fill="#FBFBFB" transform="translate(130,5)"/>
<path d="M0 0 C4.86543612 2.88726179 6.25526247 6.37856512 7.6875 11.625 C7.99820435 12.69524414 7.99820435 12.69524414 8.31518555 13.78710938 C10.631131 21.92098216 12.31453103 29.50766226 12 38 C10.35 37.67 8.7 37.34 7 37 C6.83395264 36.27409668 6.66790527 35.54819336 6.49682617 34.80029297 C5.73492338 31.48999313 4.96133053 28.18253096 4.1875 24.875 C3.92646484 23.73289062 3.66542969 22.59078125 3.39648438 21.4140625 C2.10062444 15.91065735 0.89384827 10.8839121 -2 6 C-4.28836222 5.58013054 -4.28836222 5.58013054 -7 6 C-12.83528213 11.26225933 -17.30276114 17.74300345 -22 24 C-22.72606445 24.9588208 -22.72606445 24.9588208 -23.46679688 25.93701172 C-24.94375791 27.8899579 -26.41070822 29.850042 -27.875 31.8125 C-28.32697754 32.40981934 -28.77895508 33.00713867 -29.24462891 33.62255859 C-34.27037261 40.4203312 -37.56761389 45.9872366 -37.3125 54.6875 C-37.29413086 55.37158936 -37.27576172 56.05567871 -37.25683594 56.76049805 C-37.213389 58.15939224 -37.15927179 59.55799773 -37.09423828 60.95605469 C-37.00415978 62.90977808 -36.95232228 64.8651523 -36.90234375 66.8203125 C-36.74708886 71.45090232 -36.74708886 71.45090232 -36 76 C-34.0708515 77.87606953 -34.0708515 77.87606953 -32 79 C-25.10729653 75.89239224 -21.79659749 69.74400863 -18.125 63.4375 C-12.11803402 53.41744736 -3.57593022 49.56292326 6.5078125 44.35546875 C10.69775141 42.18147773 14.78638486 39.85726966 18.875 37.5 C24.91852884 34.04524583 31.08787962 30.92515668 37.375 27.9375 C38.61612549 27.34582031 38.61612549 27.34582031 39.88232422 26.7421875 C45.7414157 24 45.7414157 24 48 24 C48 25.98 48 27.96 48 30 C47.37246826 30.31114746 46.74493652 30.62229492 46.09838867 30.94287109 C32.97455781 37.4575699 19.89974475 44.04351944 6.97705078 50.94970703 C5.17787616 51.90550466 3.36873464 52.84248098 1.55859375 53.77734375 C0.10646484 54.53724609 0.10646484 54.53724609 -1.375 55.3125 C-2.16648437 55.72113281 -2.95796875 56.12976562 -3.7734375 56.55078125 C-9.01657725 59.96342133 -12.1155802 64.52607978 -15.25 69.8125 C-19.69644413 77.02111484 -24.98952357 83.60516343 -33 87 C-35.125 86.9375 -35.125 86.9375 -37 86 C-37.27328125 85.22785156 -37.5465625 84.45570312 -37.828125 83.66015625 C-39.25434346 80.42264036 -40.69055675 79.42601229 -43.625 77.5 C-44.51960938 76.90832031 -45.41421875 76.31664063 -46.3359375 75.70703125 C-47.65464844 74.86205078 -47.65464844 74.86205078 -49 74 C-49.73476562 73.50886719 -50.46953125 73.01773438 -51.2265625 72.51171875 C-60.06932245 66.72466156 -68.68317046 65.9939808 -79 67 C-82.47921129 68.16133673 -85.1268974 69.74299796 -88 72 C-88.61746094 72.47695312 -89.23492187 72.95390625 -89.87109375 73.4453125 C-91.28347615 74.58696109 -92.64838848 75.78701531 -94 77 C-94.66 76.67 -95.32 76.34 -96 76 C-96.26478111 73.08740779 -96.38661941 71.53284796 -94.63671875 69.12109375 C-85.89319173 61.56906941 -77.23690378 59.2189005 -65.72265625 59.546875 C-56.79428754 60.63364391 -50.08581512 64.78210396 -43 70 C-43.09539062 68.73285156 -43.19078125 67.46570313 -43.2890625 66.16015625 C-43.40171494 64.460982 -43.51365605 62.76176049 -43.625 61.0625 C-43.68945312 60.23169922 -43.75390625 59.40089844 -43.8203125 58.54492188 C-44.76984923 43.2929881 -37.52311692 33.66925379 -28.5625 21.9375 C-27.93279297 21.10412109 -27.30308594 20.27074219 -26.65429688 19.41210938 C-24.77830492 16.93456604 -22.89127733 14.46588929 -21 12 C-20.35708008 11.15783936 -19.71416016 10.31567871 -19.05175781 9.44799805 C-18.43268555 8.64273682 -17.81361328 7.83747559 -17.17578125 7.0078125 C-16.62188721 6.28609863 -16.06799316 5.56438477 -15.49731445 4.82080078 C-11.42845171 -0.12711677 -6.17487249 -1.3428233 0 0 Z " fill="#271E1C" transform="translate(132,0)"/>
<path d="M0 0 C8.33366386 3.33346554 13.54298663 10.27002479 17.046875 18.44140625 C18.37022672 22.23043687 19 24.92443904 19 29 C19.680625 29.185625 20.36125 29.37125 21.0625 29.5625 C25.18689821 31.58082253 27.90378945 34.66287393 31 38 C31.92232422 37.65775391 31.92232422 37.65775391 32.86328125 37.30859375 C33.67152344 37.02113281 34.47976562 36.73367187 35.3125 36.4375 C36.51326172 36.00244141 36.51326172 36.00244141 37.73828125 35.55859375 C40 35 40 35 43 36 C42.875 37.75 42.875 37.75 42 40 C40.01924973 41.36176581 38.01920337 42.69593116 36 44 C35.67 44.99 35.34 45.98 35 47 C38.3 47 41.6 47 45 47 C45 48.32 45 49.64 45 51 C40.545 51.495 40.545 51.495 36 52 C35.67 53.65 35.34 55.3 35 57 C32.525 57.495 32.525 57.495 30 58 C30 56.02 30 54.04 30 52 C28.35 52 26.7 52 25 52 C23.9673198 49.21176345 23.95490707 48.1322726 24.9375 45.25 C25.4634375 44.13625 25.4634375 44.13625 26 43 C23.57001336 42.15885078 22.05694412 41.99003478 19.5 42.4375 C13.01302975 43.48004879 6.3804219 43.59510547 0 42 C0 36.39 0 30.78 0 25 C0.66 24.67 1.32 24.34 2 24 C1.34 23.67 0.68 23.34 0 23 C0 15.41 0 7.82 0 0 Z " fill="#221916" transform="translate(0,46)"/>
<path d="M0 0 C3.66409781 -0.53883791 4.85195218 -0.10779794 7.90234375 2.11328125 C11.03270108 4.84126045 13.28050393 7.97333365 15.4375 11.5 C15.82091553 12.10875977 16.20433105 12.71751953 16.59936523 13.34472656 C19.11105927 17.38725345 21.36961002 21.52443119 23.5625 25.75 C31.56927433 40.89645558 42.29029036 48.8612147 58 55 C57.67 53.35 57.34 51.7 57 50 C58.98 49.505 58.98 49.505 61 49 C61.40734375 49.98226562 61.8146875 50.96453125 62.234375 51.9765625 C63.28309872 53.72407644 63.28309872 53.72407644 65 55 C69.09273277 55.78539573 73.10151455 55.5626925 77.25 55.375 C78.37664062 55.34792969 79.50328125 55.32085937 80.6640625 55.29296875 C83.44464237 55.22227604 86.22135359 55.1236504 89 55 C89.495 57.475 89.495 57.475 90 60 C84.39 60.99 78.78 61.98 73 63 C73.33 63.33 73.66 63.66 74 64 C74.04063832 65.66617115 74.042721 67.33388095 74 69 C72.23046875 69.67578125 72.23046875 69.67578125 70 70 C68.11328125 68.85546875 68.11328125 68.85546875 66.3125 67.1875 C65.71050781 66.64480469 65.10851562 66.10210937 64.48828125 65.54296875 C63 64 63 64 62 62 C60.26662135 61.5367695 58.51103043 61.15594703 56.75 60.8125 C40.95620919 57.05654499 29.07910885 47.20657448 20.17236328 33.90917969 C17.39344663 29.38374691 15.1221339 24.56116058 12.75268555 19.81298828 C9.75881735 13.98730476 6.69355891 9.89829536 1.6171875 5.69140625 C0 4 0 4 0 0 Z " fill="#271E1C" transform="translate(45,108)"/>
<path d="M0 0 C0.33 0 0.66 0 1 0 C1.69190053 5.87566327 1.8668869 10.67862414 -1.6875 15.625 C-6.54960949 21.18026146 -12.81770915 25.06750522 -19 29 C-12.90574012 34.21596948 -6.47480426 37.18449039 1 40 C1 41.98 1 43.96 1 46 C-3.81312082 45.43418274 -7.76720651 43.96712718 -12.0625 41.8125 C-13.24972656 41.24144531 -14.43695313 40.67039063 -15.66015625 40.08203125 C-18.52547238 38.29581663 -19.73434548 37.30313408 -21.69921875 34.76171875 C-22.45847656 33.85035156 -23.21773437 32.93898437 -24 32 C-27.08312961 32 -29.09567232 32.23708784 -32 33 C-39.12513735 34.82116384 -45.635659 35.22429465 -53 35 C-53.5625 33.0625 -53.5625 33.0625 -54 31 C-52.20048967 29.20048967 -49.6868523 29.69058083 -47.27319336 29.50708008 C-29.53383788 28.0677778 -16.39098466 21.79872518 -4.6640625 8.15625 C-2.64028183 5.53388631 -1.25407885 3.05681719 0 0 Z " fill="#2A211F" transform="translate(179,92)"/>
<path d="M0 0 C3.03327712 1.12343597 4.18524823 2.23156029 6.25 4.8125 C10.31138656 9.86446865 15.24414478 13.00294171 21.6875 14 C25.70431632 14.27559632 27.64591606 13.23605596 31 11 C35.3034129 11.22649542 39.11557733 13.24820154 43 15 C43 16.65 43 18.3 43 20 C39.80418303 20.07609088 36.90737628 19.98396897 33.75 19.4375 C31.04705178 18.73389607 31.04705178 18.73389607 29 20 C19.56279042 21.14688311 13.28626657 18.67247232 5.6328125 13.35546875 C2.19959453 10.64921331 -0.33352282 8.57176082 -1.0625 4.125 C-1 1 -1 1 0 0 Z " fill="#261C1A" transform="translate(137,160)"/>
<path d="M0 0 C3.99180567 2.07736826 6.00434996 3.98647967 8.25 7.875 C9.00023437 9.13957031 9.00023437 9.13957031 9.765625 10.4296875 C10.99242446 12.98422561 11.57981263 15.20875532 12 18 C6.55208317 15.52367417 3.02997294 11.0328364 0 6 C-0.4375 2.4375 -0.4375 2.4375 0 0 Z " fill="#6DB866" transform="translate(0,52)"/>
<path d="M0 0 C6.55925943 0.38979206 11.94526627 1.42113193 18 4 C18 4.66 18 5.32 18 6 C15.37493198 6.02690844 12.75013827 6.04679404 10.125 6.0625 C9.37863281 6.07087891 8.63226563 6.07925781 7.86328125 6.08789062 C2.2265625 6.11328125 2.2265625 6.11328125 0 5 C0 3.35 0 1.7 0 0 Z " fill="#6CB665" transform="translate(0,77)"/>
<path d="M0 0 C2.625 0.375 2.625 0.375 5 1 C5.625 3.375 5.625 3.375 6 6 C5.34 6.66 4.68 7.32 4 8 C1.375 7.625 1.375 7.625 -1 7 C-1.625 4.625 -1.625 4.625 -2 2 C-1.34 1.34 -0.68 0.68 0 0 Z " fill="#312725" transform="translate(57,75)"/>
<path d="M0 0 C0 1.98 0 3.96 0 6 C0.66 6.33 1.32 6.66 2 7 C-0.97 7 -3.94 7 -7 7 C-6 3 -6 3 -3.5 1.25 C-1 0 -1 0 0 0 Z " fill="#DDBE69" transform="translate(42,86)"/>
</svg>
